<svg xmlns="http://www.w3.org/2000/svg" version="1.1" xmlns:xlink="http://www.w3.org/1999/xlink" xmlns:svgjs="http://svgjs.dev/svgjs" viewBox="0 0 800 800"><defs><linearGradient x1="50%" y1="0%" x2="50%" y2="100%" id="ffflurry-grad" gradientTransform="rotate(270)"><stop stop-color="#f3f4f6" stop-opacity="1" offset="0%"></stop><stop stop-color="hsl(223, 15%, 91%)" stop-opacity="1" offset="45%"></stop><stop stop-color="hsl(217, 1%, 76%)" stop-opacity="1" offset="100%"></stop></linearGradient></defs><rect width="100%" height="100%" fill="#f3f4f6"></rect><g fill="url(#ffflurry-grad)"><rect width="493" height="3" x="102.5" y="686.5" rx="1.5" transform="rotate(45, 349, 688)" opacity="0.40"></rect><rect width="175" height="3" x="138.5" y="751.5" rx="1.5" transform="rotate(45, 226, 753)" opacity="1.00"></rect><rect width="58" height="3" x="488" y="414.5" rx="1.5" transform="rotate(45, 517, 416)" opacity="0.62"></rect><rect width="333" height="3" x="-121.5" y="330.5" rx="1.5" transform="rotate(45, 45, 332)" opacity="0.47"></rect><rect width="158" height="3" x="430" y="633.5" rx="1.5" transform="rotate(45, 509, 635)" opacity="0.42"></rect><rect width="282" height="3" x="561" y="35.5" rx="1.5" transform="rotate(45, 702, 37)" opacity="0.89"></rect><rect width="561" height="3" x="231.5" y="168.5" rx="1.5" transform="rotate(45, 512, 170)" opacity="0.68"></rect><rect width="244" height="3" x="180" y="761.5" rx="1.5" transform="rotate(45, 302, 763)" opacity="0.13"></rect><rect width="68" height="3" x="684" y="236.5" rx="1.5" transform="rotate(45, 718, 238)" opacity="0.35"></rect><rect width="452" height="3" x="396" y="395.5" rx="1.5" transform="rotate(45, 622, 397)" opacity="0.23"></rect><rect width="114" height="3" x="715" y="196.5" rx="1.5" transform="rotate(45, 772, 198)" opacity="0.23"></rect><rect width="471" height="3" x="-197.5" y="419.5" rx="1.5" transform="rotate(45, 38, 421)" opacity="0.21"></rect><rect width="174" height="3" x="157" y="618.5" rx="1.5" transform="rotate(45, 244, 620)" opacity="0.15"></rect><rect width="122" height="3" x="211" y="35.5" rx="1.5" transform="rotate(45, 272, 37)" opacity="0.32"></rect><rect width="190" height="3" x="327" y="205.5" rx="1.5" transform="rotate(45, 422, 207)" opacity="0.21"></rect><rect width="463" height="3" x="-183.5" y="622.5" rx="1.5" transform="rotate(45, 48, 624)" opacity="0.91"></rect><rect width="800" height="3" x="19" y="61.5" rx="1.5" transform="rotate(45, 419, 63)" opacity="0.75"></rect><rect width="38" height="3" x="608" y="210.5" rx="1.5" transform="rotate(45, 627, 212)" opacity="0.88"></rect><rect width="459" height="3" x="357.5" y="513.5" rx="1.5" transform="rotate(45, 587, 515)" opacity="0.74"></rect><rect width="499" height="3" x="98.5" y="423.5" rx="1.5" transform="rotate(45, 348, 425)" opacity="0.53"></rect><rect width="166" height="3" x="214" y="636.5" rx="1.5" transform="rotate(45, 297, 638)" opacity="0.20"></rect><rect width="494" height="3" x="355" y="131.5" rx="1.5" transform="rotate(45, 602, 133)" opacity="0.12"></rect><rect width="285" height="3" x="354.5" y="700.5" rx="1.5" transform="rotate(45, 497, 702)" opacity="0.66"></rect><rect width="547" height="3" x="354.5" y="45.5" rx="1.5" transform="rotate(45, 628, 47)" opacity="0.44"></rect><rect width="145" height="3" x="250.5" y="100.5" rx="1.5" transform="rotate(45, 323, 102)" opacity="0.95"></rect><rect width="54" height="3" x="117" y="594.5" rx="1.5" transform="rotate(45, 144, 596)" opacity="0.99"></rect><rect width="87" height="3" x="308.5" y="614.5" rx="1.5" transform="rotate(45, 352, 616)" opacity="0.56"></rect><rect width="455" height="3" x="-20.5" y="481.5" rx="1.5" transform="rotate(45, 207, 483)" opacity="0.72"></rect><rect width="76" height="3" x="257" y="470.5" rx="1.5" transform="rotate(45, 295, 472)" opacity="0.27"></rect><rect width="353" height="3" x="306.5" y="770.5" rx="1.5" transform="rotate(45, 483, 772)" opacity="0.26"></rect><rect width="323" height="3" x="519.5" y="141.5" rx="1.5" transform="rotate(45, 681, 143)" opacity="0.81"></rect><rect width="363" height="3" x="77.5" y="694.5" rx="1.5" transform="rotate(45, 259, 696)" opacity="0.08"></rect><rect width="169" height="3" x="91.5" y="210.5" rx="1.5" transform="rotate(45, 176, 212)" opacity="0.41"></rect><rect width="471" height="3" x="317.5" y="287.5" rx="1.5" transform="rotate(45, 553, 289)" opacity="0.30"></rect><rect width="564" height="3" x="-164" y="513.5" rx="1.5" transform="rotate(45, 118, 515)" opacity="0.74"></rect><rect width="501" height="3" x="-9.5" y="402.5" rx="1.5" transform="rotate(45, 241, 404)" opacity="0.47"></rect><rect width="74" height="3" x="148" y="321.5" rx="1.5" transform="rotate(45, 185, 323)" opacity="0.36"></rect><rect width="468" height="3" x="417" y="294.5" rx="1.5" transform="rotate(45, 651, 296)" opacity="0.98"></rect><rect width="263" height="3" x="574.5" y="655.5" rx="1.5" transform="rotate(45, 706, 657)" opacity="0.16"></rect><rect width="616" height="3" x="-168" y="49.5" rx="1.5" transform="rotate(45, 140, 51)" opacity="0.75"></rect><rect width="538" height="3" x="-104" y="671.5" rx="1.5" transform="rotate(45, 165, 673)" opacity="0.07"></rect><rect width="277" height="3" x="374.5" y="544.5" rx="1.5" transform="rotate(45, 513, 546)" opacity="0.12"></rect><rect width="85" height="3" x="487.5" y="52.5" rx="1.5" transform="rotate(45, 530, 54)" opacity="0.53"></rect><rect width="252" height="3" x="206" y="242.5" rx="1.5" transform="rotate(45, 332, 244)" opacity="0.86"></rect><rect width="190" height="3" x="497" y="716.5" rx="1.5" transform="rotate(45, 592, 718)" opacity="0.11"></rect><rect width="403" height="3" x="232.5" y="738.5" rx="1.5" transform="rotate(45, 434, 740)" opacity="0.50"></rect><rect width="251" height="3" x="607.5" y="396.5" rx="1.5" transform="rotate(45, 733, 398)" opacity="0.55"></rect><rect width="272" height="3" x="636" y="699.5" rx="1.5" transform="rotate(45, 772, 701)" opacity="0.07"></rect><rect width="124" height="3" x="684" y="121.5" rx="1.5" transform="rotate(45, 746, 123)" opacity="0.43"></rect><rect width="255" height="3" x="218.5" y="169.5" rx="1.5" transform="rotate(45, 346, 171)" opacity="0.44"></rect><rect width="286" height="3" x="233" y="300.5" rx="1.5" transform="rotate(45, 376, 302)" opacity="0.43"></rect><rect width="330" height="3" x="-87" y="247.5" rx="1.5" transform="rotate(45, 78, 249)" opacity="0.66"></rect><rect width="106" height="3" x="325" y="757.5" rx="1.5" transform="rotate(45, 378, 759)" opacity="0.21"></rect><rect width="132" height="3" x="482" y="769.5" rx="1.5" transform="rotate(45, 548, 771)" opacity="0.29"></rect><rect width="39" height="3" x="254.5" y="318.5" rx="1.5" transform="rotate(45, 274, 320)" opacity="0.73"></rect><rect width="164" height="3" x="221" y="533.5" rx="1.5" transform="rotate(45, 303, 535)" opacity="0.80"></rect><rect width="456" height="3" x="180" y="474.5" rx="1.5" transform="rotate(45, 408, 476)" opacity="0.88"></rect><rect width="123" height="3" x="95.5" y="761.5" rx="1.5" transform="rotate(45, 157, 763)" opacity="0.92"></rect><rect width="401" height="3" x="-146.5" y="110.5" rx="1.5" transform="rotate(45, 54, 112)" opacity="0.49"></rect><rect width="317" height="3" x="-98.5" y="738.5" rx="1.5" transform="rotate(45, 60, 740)" opacity="0.73"></rect><rect width="478" height="3" x="-13" y="136.5" rx="1.5" transform="rotate(45, 226, 138)" opacity="0.16"></rect><rect width="297" height="3" x="-106.5" y="503.5" rx="1.5" transform="rotate(45, 42, 505)" opacity="0.27"></rect><rect width="81" height="3" x="428.5" y="288.5" rx="1.5" transform="rotate(45, 469, 290)" opacity="0.44"></rect><rect width="638" height="3" x="305" y="616.5" rx="1.5" transform="rotate(45, 624, 618)" opacity="0.37"></rect><rect width="315" height="3" x="105.5" y="246.5" rx="1.5" transform="rotate(45, 263, 248)" opacity="0.59"></rect><rect width="361" height="3" x="-47.5" y="402.5" rx="1.5" transform="rotate(45, 133, 404)" opacity="0.67"></rect><rect width="197" height="3" x="660.5" y="309.5" rx="1.5" transform="rotate(45, 759, 311)" opacity="0.69"></rect><rect width="340" height="3" x="515" y="759.5" rx="1.5" transform="rotate(45, 685, 761)" opacity="0.84"></rect><rect width="290" height="3" x="273" y="637.5" rx="1.5" transform="rotate(45, 418, 639)" opacity="0.49"></rect><rect width="427" height="3" x="467.5" y="511.5" rx="1.5" transform="rotate(45, 681, 513)" opacity="0.75"></rect><rect width="31" height="3" x="753.5" y="49.5" rx="1.5" transform="rotate(45, 769, 51)" opacity="0.31"></rect><rect width="112" height="3" x="268" y="358.5" rx="1.5" transform="rotate(45, 324, 360)" opacity="0.40"></rect><rect width="484" height="3" x="183" y="376.5" rx="1.5" transform="rotate(45, 425, 378)" opacity="0.75"></rect><rect width="248" height="3" x="311" y="542.5" rx="1.5" transform="rotate(45, 435, 544)" opacity="0.51"></rect><rect width="359" height="3" x="584.5" y="521.5" rx="1.5" transform="rotate(45, 764, 523)" opacity="0.35"></rect><rect width="82" height="3" x="305" y="565.5" rx="1.5" transform="rotate(45, 346, 567)" opacity="0.39"></rect><rect width="410" height="3" x="14" y="556.5" rx="1.5" transform="rotate(45, 219, 558)" opacity="0.64"></rect></g></svg>