<svg xmlns="http://www.w3.org/2000/svg" version="1.1" xmlns:xlink="http://www.w3.org/1999/xlink" xmlns:svgjs="http://svgjs.dev/svgjs" viewBox="0 0 800 800" opacity="0.57"><g stroke-width="2" stroke="hsl(216, 23%, 85%)" fill="none" stroke-linecap="round"><path d="M-247.99994433593778 462.42727268583576C-204.79994565429712 440.395273358199 -75.19994960937504 328.93927675956604 11.200047753906233 330.2352767200153C97.60004511718756 331.5312766804645 184.0000424804689 470.20327244853104 270.40003984375016 470.20327244853104C356.80003720703155 470.20327244853104 443.20003457031294 338.0112764827106 529.6000319335942 330.2352767200153C616.0000292968757 322.45927695731996 702.400026660157 420.63127396134837 788.8000240234383 423.54727387235914C875.2000213867198 426.46327378336986 1004.8000174316417 360.36727580045965 1048.000016113282 347.73127618607975 " transform="rotate(0, 400, 400)"></path><path d="M-229.99994461059597 460.69317965861956C-187.9999458923342 439.27318031230607 -61.99994973754889 330.91318361919076 22.000047698974583 332.1731835807386C106.00004513549811 333.4331835422865 190.00004257202158 468.25317942790673 274.00004000854506 468.25317942790673C358.00003744506864 468.25317942790673 442.0000348815922 339.73318335002574 526.0000323181157 332.1731835807386C610.0000297546393 324.6131838114515 694.0000271911629 420.0581808987013 778.0000246276863 422.893180812184C862.0000220642098 425.7281807256667 988.0000182189951 361.46818268672615 1030.0000169372568 349.1831830616346 " transform="rotate(0, 400, 400)"></path><path d="M-211.99994488525417 458.9590885387521C-171.1999461303713 438.1510891737618 -48.79994986572274 332.88709238616406 32.800047644042934 334.11109234881053C114.40004515380866 335.33509231145706 196.00004266357428 466.303088314631 277.60004017333995 466.303088314631C359.20003768310573 466.303088314631 440.8000351928715 341.4550921246895 522.4000327026372 334.11109234881053C604.000030212403 326.76709257293163 685.6000277221688 419.4850897434029 767.2000252319344 422.23908965935755C848.8000227417001 424.9930895753121 971.2000190063486 362.56909148034134 1012.0000177612312 350.6350918445381 " transform="rotate(0, 400, 400)"></path><path d="M-193.99994515991236 457.22499360418726C-154.39994636840842 437.0289942205203 -35.59994999389653 334.86099733844014 43.60004758911134 336.0489973021852C122.80004517211921 337.23699726593037 202.00004275512697 464.352993386658 281.20004033813495 464.352993386658C360.4000379211428 464.352993386658 439.6000355041508 343.17699708465597 518.8000330871587 336.0489973021852C598.0000306701667 328.92099751971455 677.2000282531745 418.91199477340723 756.4000258361825 421.58499469183374C835.6000234191904 424.25799461026025 954.4000197937021 363.6699964592592 994.0000185852059 352.08699681274436 " transform="rotate(0, 400, 400)"></path><path d="M-175.99994543457058 455.49090439166844C-137.5999466064455 435.90690498932463 -22.39995012207038 336.83490801276207 54.40004753417969 337.9869079776058C131.20004519042976 339.1389079424496 208.00004284667978 462.40290418073096 284.80004050292985 462.40290418073096C361.6000381591799 462.40290418073096 438.40003581543 344.89890776666834 515.2000334716802 337.9869079776058C592.0000311279302 331.0749081885433 668.8000287841804 418.33890552545745 745.6000264404306 420.9309054463559C822.4000240966807 423.52290536725434 937.6000205810556 364.77090716022303 976.0000194091806 353.53890750299644 " transform="rotate(0, 400, 400)"></path><path d="M-157.99994570922877 453.756807549755C-120.79994684448263 434.7848081287345 -9.199950250244228 338.80881105768947 65.20004747924804 339.9248110236319C139.6000452087403 341.04081098957425 214.00004293823253 460.4528073454093 288.40004066772474 460.4528073454093C362.800038397217 460.4528073454093 437.2000361267093 346.6208108192862 511.60003385620166 339.9248110236319C586.0000315856939 333.2288112279776 660.4000293151862 417.76580864811314 734.8000270446785 420.2768085714835C809.2000247741707 422.78780849485383 920.800021368409 365.8718102317923 958.000020233155 354.99081056385404 " transform="rotate(0, 400, 400)"></path><path d="M-139.99994598388696 452.0227221519334C-103.99994708251972 433.66272271223613 4.000049621581979 340.7827255467087 76.00004742431639 341.8627255137497C148.00004522705086 342.9427254807907 220.00004302978522 458.5027219541795 292.00004083251974 458.5027219541795C364.0000386352541 458.5027219541795 436.00003643798857 348.34272531599584 508.00003424072304 341.8627255137497C580.0000320434575 335.3827257115036 652.0000298461921 417.1927232148606 724.0000276489266 419.6227231407029C796.0000254516608 422.0527230665452 904.0000221557625 366.97272474745336 940.0000210571297 356.44272506880344 " transform="rotate(0, 400, 400)"></path><path d="M-121.99994625854515 450.2886329394145C-87.19994732055682 432.5406334810405 17.20004949340813 342.75663622103065 86.80004736938474 343.8006361891703C156.4000452453614 344.84463615730994 226.00004312133797 456.55263274825245 295.60004099731464 456.55263274825245C365.2000388732913 456.55263274825245 434.80003674926786 350.0646359980082 504.40003462524453 343.8006361891703C574.0000325012212 337.5366363803324 643.6000303771979 416.61963396691084 713.2000282531745 418.968633895225C782.8000261291513 421.31763382353927 887.200022943116 368.0736354484171 922.0000218811042 357.8946357590556 " transform="rotate(0, 400, 400)"></path><path d="M-103.99994653320334 448.5545399121984C-70.39994755859394 431.4185404351476 30.40004936523428 344.7305430806553 97.60004731445315 345.7385430498936C164.80004526367196 346.7465430191319 232.00004321289072 454.6025397276281 299.2000411621095 454.6025397276281C366.4000391113284 454.6025397276281 433.60003706054715 351.7865428653233 500.800035009766 345.7385430498936C568.0000329589849 339.6905432344639 635.2000309082036 416.0465409042638 702.4000288574225 418.3145408350499C769.6000268066414 420.5825407658361 870.4000237304695 369.1745423346837 904.0000227050787 359.34654263461044 " transform="rotate(0, 400, 400)"></path><path d="M-85.9999620666506 446.82045069967955C-53.59996305542009 430.29645120395196 43.600033978271426 346.7044537549773 108.40003200073238 347.6764537253142C173.2000300231934 348.64845369565114 238.00002804565435 452.652450521701 302.80002606811536 452.652450521701C367.6000240905764 452.652450521701 432.4000221130374 353.5084535473357 497.20002013549845 347.6764537253142C562.0000181579594 341.84445390329273 626.8000161804205 415.473451656314 691.6000142028814 417.66045158957206C756.4000122253425 419.8474515228301 853.6000092590339 370.2754530356475 886.0000082702645 360.7984533248626 " transform="rotate(0, 400, 400)"></path><path d="M-67.99996234130879 445.0863614871607C-36.79996329345721 429.17436197275634 56.80003385009758 348.6783644292992 119.20003194580079 349.61436440073476C181.60003004150394 350.55036437217035 244.0000281372071 450.70236131577394 306.4000262329103 450.70236131577394C368.8000243286135 450.70236131577394 431.20002242431667 355.2303642293481 493.60002052001994 349.61436440073476C556.0000186157231 343.9983645721215 618.4000167114262 414.90036240836423 680.8000148071295 417.0063623440942C743.2000129028328 419.1123622798242 836.8000100463873 371.37636373661127 868.000009094239 362.25036401511466 " transform="rotate(0, 400, 400)"></path><path d="M-49.99996261596701 443.3522684599445C-19.999963531494302 428.05226892686346 70.00003372192378 350.65227128892394 130.00003189086908 351.5522712614581C190.00003005981455 352.4522712339923 250.00002822875985 448.7522682951496 310.0000263977052 448.7522682951496C370.0000245666506 448.7522682951496 430.00002273559596 356.9522710966632 490.00002090454143 351.5522712614581C550.0000190734868 346.15227142625304 610.0000172424321 414.3272693457172 670.0000154113775 416.3522692839191C730.0000135803228 418.377269222121 820.0000108337408 372.47727062287777 850.0000099182134 363.7022708906695 " transform="rotate(0, 400, 400)"></path><path d="M-31.999993408203323 441.61817924742564C-3.1999942871095186 426.9301796956678 83.20000307617181 352.62618196324587 140.80000131835936 353.4901819368787C198.39999956054692 354.3541819105115 255.99999780273447 446.80217908922253 313.599996044922 446.80217908922253C371.1999942871096 446.80217908922253 428.7999925292971 358.6741817786756 486.3999907714848 353.4901819368787C543.9999890136723 348.3061820950818 601.5999872558599 413.7541800977674 659.1999854980475 415.69818003844125C716.799983740235 417.6421799791151 803.1999811035162 373.5781813238416 831.99998022461 365.15418158092166 " transform="rotate(0, 400, 400)"></path><path d="M-13.999993682861515 439.8840862202095C13.600005474853361 425.8080866497749 96.40000294799802 354.60008882287053 151.6000012634277 355.428088797602C206.79999957885747 356.25608877233344 261.99999789428716 444.85208606859817 317.1999962097169 444.85208606859817C372.39999452514667 444.85208606859817 427.5999928405763 360.3960886459907 482.7999911560062 355.428088797602C537.9999894714359 350.46008894921334 593.1999877868657 413.18108703512036 648.3999861022954 415.04408697826614C703.5999844177252 416.90708692141186 786.3999818908696 374.6790882101081 813.9999810485846 366.6060884564765 " transform="rotate(0, 400, 400)"></path><path d="M4.000006042480294 438.1499855635988C30.40000523681627 424.6859859744875 109.60000281982417 356.5739880531007 162.40000120849606 357.36598802893076C215.19999959716802 358.15798800476085 267.9999979858399 442.90198541857933 320.7999963745118 442.90198541857933C373.59999476318376 442.90198541857933 426.3999931518556 362.11798788391127 479.19999154052766 357.36598802893076C531.9999899291996 352.6139881739503 584.7999883178716 412.6079863430788 637.5999867065435 414.38998628869643C690.3999850952154 416.17198623431415 769.5999826782232 375.7799874669801 795.9999818725591 368.05798770263686 " transform="rotate(0, 400, 400)"></path><path d="M22.000005767822103 436.41590779517173C47.20000499877915 423.5639081873836 122.80000269165035 358.54791017151445 173.20000115356447 359.30391014844315C223.59999961547857 360.05991012537186 273.99999807739266 440.951907656744 324.39999653930676 440.951907656744C374.79999500122085 440.951907656744 425.1999934631349 363.83991001001544 475.59999192504915 359.30391014844315C525.9999903869632 354.7679102868709 576.3999888488773 412.0349085392208 626.7999873107915 413.7359084873104C677.1999857727056 415.4369084354 752.7999834655768 376.8809096120357 777.9999826965337 369.5099098369808 " transform="rotate(0, 400, 400)"></path><path d="M40.00000549316391 434.68181476795564C64.00000476074206 422.44181514149074 136.00000256347653 360.5218170311391 184.00000109863277 361.2418170091665C231.99999963378912 361.9618169871938 279.99999816894535 439.00181463611966 327.99999670410165 439.00181463611966C375.99999523925794 439.00181463611966 423.9999937744143 365.56181687733056 471.99999230957053 361.2418170091665C519.9999908447269 356.9218171410024 567.9999893798832 411.46181547657375 615.9999879150395 413.08181542713527C663.9999864501958 414.7018153776968 735.9999842529303 377.98181649830224 759.9999835205083 370.9618167125356 " transform="rotate(0, 400, 400)"></path><path d="M58.00000521850572 432.94771029664764C80.80000452270497 421.31971065150606 149.20000243530268 362.49571244667203 194.80000104370117 363.179712425798C240.3999996520996 363.863712404924 285.9999982604981 437.05171017140356 331.5999968688966 437.05171017140356C377.19999547729503 437.05171017140356 422.7999940856936 367.2837123005539 468.399992694092 363.179712425798C513.9999913024906 359.07571255104216 559.599989910889 410.8887109698349 605.1999885192876 412.42771092286836C650.799987127686 413.9667108759018 719.1999850402838 379.08271194047694 741.9999843444829 372.4137121439987 " transform="rotate(0, 400, 400)"></path><path d="M76.00000494384753 431.2136363429179C97.60000428466785 420.1976366790995 162.4000023071289 364.469638379783 205.60000098876952 365.1176383600076C248.79999967041022 365.7656383402323 291.99999835205085 435.1016362242655 335.1999970336915 435.1016362242655C378.3999957153322 435.1016362242655 421.5999943969729 369.0056382413553 464.7999930786135 365.1176383600076C507.99999176025426 361.22963847866 551.1999904418949 410.3156369806742 594.3999891235355 411.77363693617957C637.5999878051763 413.23163689168496 702.3999858276372 380.1836379002298 723.9999851684574 373.8656380930399 " transform="rotate(0, 400, 400)"></path><path d="M94.00000466918931 429.47954331570173C114.40000404663076 419.0755436332066 175.60000217895504 366.44354523940774 216.40000093383787 367.05554522073095C257.1999996887207 367.6675452020542 297.99999844360354 433.15154320364115 338.7999971984864 433.15154320364115C379.5999959533693 433.15154320364115 420.39999470825217 370.7275451086704 461.199993463135 367.05554522073095C501.99999221801795 363.3835453327915 542.7999909729008 409.74254391802714 583.5999897277836 411.11954387600446C624.3999884826665 412.4965438339817 685.5999866149907 381.2845447864964 705.999985992432 375.31754496859475 " transform="rotate(0, 400, 400)"></path><path d="M112.00000439453112 427.7454521958342C131.20000380859364 417.9534524946623 188.80000205078122 368.41745400638104 227.20000087890625 368.9934539888029C265.5999997070313 369.5694539712248 303.9999985351563 431.2014520903655 342.39999736328133 431.2014520903655C380.79999619140636 431.2014520903655 419.1999950195314 372.4494538833342 457.5999938476565 368.9934539888029C495.9999926757815 365.53745409427165 534.3999915039067 409.1694527627287 572.7999903320317 410.4654527231779C611.1999891601567 411.76145268362717 668.7999874023442 382.3854535801115 687.9999868164067 376.76945375149825 " transform="rotate(0, 400, 400)"></path><path d="M130.00000411987293 426.0113610759667C148.00000357055654 416.83136135611807 202.0000019226074 370.39136277335433 238.0000008239746 370.9313627568749C273.9999997253418 371.47136274039536 309.99999862670904 429.25136097708975 345.9999975280763 429.25136097708975C381.99999642944346 429.25136097708975 417.9999953308107 374.1713626579979 453.9999942321779 370.9313627568749C489.99999313354516 367.69136285575183 525.9999920349125 408.5963616074303 561.9999909362797 409.81136157035144C597.9999898376468 411.0263615332726 651.9999881896977 383.4863623737267 669.9999876403813 378.2213625344017 " transform="rotate(0, 400, 400)"></path><path d="M148.00000384521474 424.2772699560992C164.80000333251945 415.7092702175738 215.20000179443355 372.3652715403277 248.80000076904298 372.8692715249468C282.3999997436524 373.37327150956594 315.99999871826174 427.301269863814 349.59999769287117 427.301269863814C383.1999966674806 427.301269863814 416.79999564209 375.89327143266166 450.3999946166994 372.8692715249468C483.99999359130885 369.84527161723196 517.5999925659182 408.0232704521319 551.1999915405277 409.15727041752496C584.7999905151371 410.291270382918 635.1999889770511 384.58727116734184 651.9999884643557 379.6732713173052 " transform="rotate(0, 400, 400)"></path><path d="M166.00000357055654 422.5431807435803C181.60000309448233 414.58718098637814 228.40000166625973 374.3391822146496 259.60000071411133 374.8071822003674C290.7999997619629 375.27518218608515 321.9999988098145 425.35118065788697 353.19999785766606 425.35118065788697C384.3999969055177 425.35118065788697 415.5999959533693 377.61518211467404 446.7999950012209 374.8071822003674C477.9999940490725 371.9991822860608 509.19999309692406 407.4501812041821 540.3999921447758 408.5031811720471C571.5999911926274 409.5561811399121 618.3999897644046 385.6881818683056 633.9999892883304 381.1251820075573 " transform="rotate(0, 400, 400)"></path><path d="M184.00000329589835 420.8090896237128C198.40000285644524 413.4650898478339 241.6000015380859 376.31309098162296 270.4000006591797 376.74509096843934C299.19999978027346 377.1770909552557 327.99999890136723 423.40108954461124 356.799998022461 423.40108954461124C385.5999971435548 423.40108954461124 414.39999626464856 379.3370908893378 443.1999953857424 376.74509096843934C471.9999945068362 374.1530910475409 500.79999362792995 406.8770900488837 529.5999927490237 407.8490900192206C558.3999918701174 408.82108998955755 601.5999905517581 386.7890906619208 615.999990112305 382.57709079046083 " transform="rotate(0, 400, 400)"></path><path d="M202.00000302124016 419.07499850384534C215.20000261840812 412.34299870928965 254.80000140991208 378.28699974859626 281.20000060424803 378.6829997365113C307.599999798584 379.07899972442635 333.9999989929199 421.45099843133556 360.3999981872559 421.45099843133556C386.7999973815919 421.45099843133556 413.1999965759278 381.05899966400153 439.59999577026383 378.6829997365113C465.9999949645998 376.3069998090211 492.3999941589358 406.3039988935853 518.7999933532717 407.19499886639414C545.1999925476077 408.08599883920294 584.7999913391116 387.889999455536 597.9999909362796 384.02899957336433 " transform="rotate(0, 400, 400)"></path><path d="M220.00000274658194 417.3409073839778C232.00000238037103 411.2209075707454 268.00000128173826 380.26090851556955 292.0000005493164 380.6209085045832C315.99999981689456 380.9809084935969 339.9999990844727 419.50090731805983 363.99999835205085 419.50090731805983C387.99999761962897 419.50090731805983 411.99999688720715 382.7809084386653 435.99999615478526 380.6209085045832C459.99999542236344 378.4609085705012 483.9999946899416 405.7309077382869 507.99999395751973 406.54090771356766C531.9999932250979 407.3509076888484 567.9999921264651 388.9909082491511 579.9999917602541 385.48090835626783 " transform="rotate(0, 400, 400)"></path><path d="M238.00000247192375 415.60681817145894C248.80000214233394 410.0988183395497 281.2000011535645 382.23481918989154 302.8000004943848 382.5588191800038C324.3999998352051 382.88281917011614 345.9999991760254 417.5508181121328 367.59999851684574 417.5508181121328C389.19999785766606 417.5508181121328 410.79999719848644 384.50281912067766 432.39999653930676 382.5588191800038C453.99999588012713 380.61481923933 475.59999522094745 405.1578184903371 497.19999456176777 405.88681846808976C518.7999939025881 406.6158184458425 551.1999929138186 390.0918189501149 561.9999925842287 386.93281904651997 " transform="rotate(0, 400, 400)"></path><path d="M256.00000219726553 413.8727260979171C265.60000190429685 408.97672624733116 294.4000010253906 384.2087270031905 313.60000043945314 384.49672699440146C332.79999985351566 384.7847269856124 351.9999992675781 415.60072604518274 371.19999868164064 415.60072604518274C390.39999809570315 415.60072604518274 409.59999750976567 386.2247269416671 428.79999692382825 384.49672699440146C447.99999633789076 382.7687270471358 467.19999575195334 404.58472638136436 486.39999516601586 405.23272636158896C505.5999945800784 405.88072634181356 534.3999937011721 391.19272679005576 543.9999934082034 388.3847268757491 " transform="rotate(0, 400, 400)"></path><path d="M274.00000955200187 412.1386359317239C282.4000092956543 407.8546360624612 307.6000085266113 386.18263672383813 324.400008013916 386.43463671614774C341.20000750122074 386.6866367084573 358.0000069885254 413.6506358855813 374.8000064758301 413.6506358855813C391.60000596313483 413.6506358855813 408.4000054504395 387.94663667000515 425.2000049377442 386.43463671614774C442.0000044250489 384.9226367622903 458.80000391235365 404.01163617974026 475.60000339965836 404.5786361624368C492.4000028869631 405.1456361451333 517.6000021179201 392.29363653734526 526.0000018615724 389.8366366123269 " transform="rotate(0, 400, 400)"></path><path d="M292.0000092773437 410.4045448118564C299.20000905761714 406.732544923917 320.8000083984375 388.1565454908115 335.2000079589844 388.3725454842197C349.60000751953123 388.58854547762786 364.00000708007815 411.70054477230565 378.40000664062507 411.70054477230565C392.8000062011719 411.70054477230565 407.2000057617188 389.6685454446689 421.6000053222657 388.3725454842197C436.0000048828126 387.07654552377045 450.40000444335953 403.43854502444185 464.8000040039064 403.9245450096103C479.20000356445325 404.4105449947788 500.8000029052736 393.3945453309604 508.00000268554703 391.2885453952304 " transform="rotate(0, 400, 400)"></path><path d="M310.0000090026855 408.6704536919889C316.00000881958005 405.61045378537267 334.00000827026366 390.1304542577848 346.0000079040527 390.3104542522916C358.00000753784184 390.49045424679844 370.00000717163084 409.7504536590299 382.00000680541996 409.7504536590299C394.000006439209 409.7504536590299 406.0000060729981 391.39045421933264 418.0000057067872 390.3104542522916C430.00000534057625 389.23045428525063 442.0000049743653 402.86545386914344 454.0000046081544 403.27045385678383C466.0000042419435 403.6754538444242 484.0000036926271 394.49545412457553 490.0000035095216 392.7404541781339 " transform="rotate(0, 400, 400)"></path><path d="M328.0000087280273 406.9363630489586C332.80000858154295 404.4883631236656 347.2000081420898 392.10436350159523 356.80000784912113 392.2483634972007C366.40000755615233 392.3923634928062 376.0000072631836 407.80036302259134 385.60000697021485 407.80036302259134C395.2000066772461 407.80036302259134 404.80000638427737 393.11236347083354 414.4000060913087 392.2483634972007C424.0000057983399 391.3843635235679 433.6000055053712 402.2923631906822 443.20000521240246 402.6163631807945C452.8000049194337 402.9403631709068 467.2000044799806 395.5963633950279 472.00000433349624 394.1923634378746 " transform="rotate(0, 400, 400)"></path><path d="M346.0000008239746 405.2022724059282C349.6000007141113 403.3662724619585 360.4000003845215 394.07827274540574 367.6000001647949 394.18627274210985C374.7999999450684 394.29427273881396 381.9999997253418 405.8502723861528 389.19999950561527 405.8502723861528C396.3999992858887 405.8502723861528 403.5999990661621 394.83427272233445 410.7999988464356 394.18627274210985C417.99999862670904 393.5382727618852 425.1999984069825 401.7192725122209 432.39999818725596 401.9622725048051C439.59999796752936 402.2052724973894 450.3999976379395 396.6972726654802 453.9999975280763 395.6442726976152 " transform="rotate(0, 400, 400)"></path><path d="M364.0000005493164 403.46818176289787C366.4000004760742 402.24418180025134 373.60000025634764 396.0521819892162 378.4000001098633 396.1241819870189C383.1999999633789 396.1961819848217 387.9999998168945 403.90018174971425 392.79999967041016 403.90018174971425C397.5999995239258 403.90018174971425 402.3999993774414 396.55618197383535 407.1999992309571 396.1241819870189C411.9999990844727 395.69218200020254 416.79999893798833 401.14618183375967 421.59999879150394 401.3081818288158C426.3999986450196 401.470181823872 433.59999842529305 397.7981819359325 435.99999835205085 397.09618195735584 " transform="rotate(0, 400, 400)"></path><path d="M382.0000002746582 401.73409064303036C383.2000002380371 401.1220906617071 386.8000001281738 398.02609075618955 389.20000005493165 398.0620907550909C391.59999998168945 398.09809075399227 393.9999999084473 401.9500906364386 396.3999998352051 401.9500906364386C398.7999997619629 401.9500906364386 401.1999996887207 398.2780907484991 403.5999996154785 398.0620907550909C405.9999995422363 397.8460907616827 408.39999946899417 400.57309067846126 410.79999939575197 400.6540906759893C413.1999993225098 400.7350906735174 416.7999992126465 398.89909072954765 417.9999991760254 398.54809074025934 " transform="rotate(0, 400, 400)"></path></g></svg>